<?xml version="1.0" encoding="UTF-8" standalone="no"?>
<!-- Created with Inkscape (http://www.inkscape.org/) -->

<svg
   version="1.1"
   id="svg1"
   width="200"
   height="200"
   viewBox="0 0 200 200"
   sodipodi:docname="wadrop.svg"
   inkscape:version="1.4.2 (f4327f4, 2025-05-13)"
   xmlns:inkscape="http://www.inkscape.org/namespaces/inkscape"
   xmlns:sodipodi="http://sodipodi.sourceforge.net/DTD/sodipodi-0.dtd"
   xmlns="http://www.w3.org/2000/svg"
   xmlns:svg="http://www.w3.org/2000/svg">
  <defs
     id="defs1" />
  <sodipodi:namedview
     id="namedview1"
     pagecolor="#ffffff"
     bordercolor="#000000"
     borderopacity="0.25"
     inkscape:showpageshadow="2"
     inkscape:pageopacity="0.0"
     inkscape:pagecheckerboard="0"
     inkscape:deskcolor="#d1d1d1"
     inkscape:zoom="1.56475"
     inkscape:cx="132.92859"
     inkscape:cy="213.13309"
     inkscape:window-width="2560"
     inkscape:window-height="1351"
     inkscape:window-x="-9"
     inkscape:window-y="-9"
     inkscape:window-maximized="1"
     inkscape:current-layer="g1" />
  <g
     inkscape:groupmode="layer"
     inkscape:label="Image"
     id="g1">
    <path
       style="fill:#bd0f1b;fill-opacity:1;stroke-width:0.294765"
       d="m 92.731978,186.51285 c -10.88882,-1.1545 -23.194483,-6.46029 -31.853005,-13.7339 -9.493316,-7.97487 -16.208373,-18.34237 -19.104163,-29.49529 -1.14536,-4.41124 -1.422381,-7.1466 -1.439039,-14.20908 -0.01689,-7.18093 0.264109,-9.45316 2.008118,-16.23559 1.329695,-5.17115 2.188469,-7.48963 4.53089,-12.23227 2.874556,-5.820048 5.071379,-9.364697 10.408228,-16.794057 13.288929,-18.499348 16.865074,-23.513748 19.854703,-27.83986 4.286717,-6.203057 11.690654,-17.548289 13.767696,-21.096582 2.66719,-4.556455 6.421237,-12.469582 8.135705,-17.149207 0.87609,-2.391284 1.677379,-4.347786 1.780639,-4.347786 0.10325,0 0.42468,0.895349 0.71428,1.989663 1.42476,5.383673 5.47826,14.775323 8.89499,20.609026 2.65724,4.536951 18.2643,27.519318 23.90076,35.19537 4.47953,6.100486 12.36945,17.820392 15.36544,22.824229 3.02912,5.05914 6.65306,12.359144 7.6824,15.475174 1.69836,5.14137 2.40657,10.70874 2.26848,17.83329 -0.23763,12.26014 -1.47995,17.8569 -5.79047,26.08672 -9.32694,17.80735 -24.29272,28.91124 -43.9592,32.6156 -2.36364,0.44522 -14.39179,0.79875 -17.166452,0.50455 z m 9.432472,-2.16534 1.47382,-0.0628 -1.32643,-0.42105 c -2.15671,-0.68462 -10.293095,-0.57778 -9.5894,0.12598 0.187962,0.18796 5.979973,0.5689 7.231281,0.47559 0.405299,-0.0303 1.400129,-0.0832 2.210729,-0.11764 z m 9.57487,-1.1742 c 0.64161,-0.40567 -4.52726,-2.77828 -7.82398,-3.59135 -5.821749,-1.43581 -13.779788,-0.49308 -18.967583,2.24698 l -0.763975,0.40352 0.829796,0.31838 c 1.151978,0.44201 1.268084,0.42597 3.917841,-0.54108 5.937891,-2.16706 13.994881,-1.86606 18.936191,0.70741 1.41806,0.73853 3.10988,0.93785 3.87171,0.45614 z m 6.19461,-1.68907 c 0.38195,-0.35631 -4.18194,-3.01053 -7.42384,-4.31749 -4.53006,-1.82627 -7.4452,-2.36958 -12.767103,-2.37943 -5.218774,-0.009 -7.799232,0.45672 -12.18557,2.2025 -2.496612,0.99367 -6.532024,3.19809 -6.532024,3.56822 0,0.13008 0.340381,0.32203 0.756407,0.42645 0.56147,0.14092 1.583766,-0.20303 3.966766,-1.33462 1.765697,-0.83847 4.509297,-1.87237 6.096888,-2.29757 2.538394,-0.67987 3.473101,-0.77566 7.750152,-0.79428 4.196844,-0.0182 5.227304,0.0736 7.516514,0.67039 3.2257,0.84096 6.81239,2.28769 9.1589,3.69437 1.35246,0.81078 1.94727,1.00811 2.63171,0.87302 0.48634,-0.096 0.95041,-0.23617 1.0312,-0.31156 z m 4.69408,-1.6845 c 0.71171,-0.39428 0.7069,-0.40114 -1.32643,-1.89735 -4.73508,-3.4842 -9.97953,-5.77608 -16.31401,-7.1294 -2.72344,-0.58183 -3.64365,-0.63858 -8.106049,-0.4999 -4.310659,0.13398 -5.520838,0.28281 -8.423644,1.03598 -5.060776,1.31308 -10.793091,3.9726 -13.706578,6.35921 l -0.884297,0.72438 0.770438,0.35131 c 0.700849,0.3196 1.013276,0.20493 3.45917,-1.26958 3.412637,-2.05732 6.374132,-3.28827 10.653909,-4.42828 3.20262,-0.85309 3.704497,-0.90443 8.992468,-0.91967 5.863363,-0.0169 7.456513,0.20443 11.937983,1.65852 3.74832,1.21622 8.58677,3.74104 11.00261,5.74145 0.96109,0.79579 0.99319,0.80031 1.94443,0.27333 z m 4.99237,-2.53374 c 0.91436,-0.48787 2.06041,-1.21264 2.54678,-1.61063 1.13808,-0.93128 0.51939,-0.9757 -1.95939,-0.14066 l -1.7934,0.60417 -0.99555,-0.67785 c -0.54757,-0.37283 -0.99646,-0.75923 -0.99757,-0.85868 -0.004,-0.32928 3.38205,-1.70619 5.31662,-2.16217 1.04671,-0.2467 2.82307,-0.45053 3.94746,-0.45293 1.68962,-0.004 2.16274,-0.11552 2.72658,-0.64525 0.37523,-0.35251 0.68223,-0.75044 0.68223,-0.88429 0,-0.39389 -4.18852,-0.2788 -6.5326,0.17952 -2.60932,0.51015 -5.25685,1.40947 -6.60822,2.24466 l -0.99584,0.61547 -1.22004,-0.72754 -1.22002,-0.72755 0.69816,-0.45495 c 1.44143,-0.93932 4.60975,-2.2654 6.8882,-2.883 1.90596,-0.51662 3.27931,-0.64979 7.16206,-0.69448 4.01301,-0.0462 4.88366,-0.13503 5.28822,-0.5396 0.26638,-0.26636 0.4034,-0.5652 0.30452,-0.6641 -0.0988,-0.0988 -1.48376,-0.29501 -3.07748,-0.43586 -5.91922,-0.52307 -12.30996,0.87231 -17.02121,3.71648 l -1.74338,1.05248 -0.98321,-0.5295 c -0.54077,-0.29121 -0.9832,-0.61434 -0.9832,-0.71804 0,-0.27572 1.99029,-1.54738 3.99934,-2.55532 5.72857,-2.87398 12.86989,-3.94186 19.84374,-2.96736 2.28057,0.31868 2.50307,0.30388 2.86454,-0.19043 0.21553,-0.29477 0.32935,-0.63715 0.2529,-0.76084 -0.30844,-0.49908 -4.65702,-0.99401 -8.68509,-0.98851 -3.67452,0.005 -4.71405,0.11831 -7.41049,0.80794 -4.54799,1.1631 -8.10442,2.67867 -11.36331,4.84245 -1.52707,1.01392 -1.61235,1.03436 -2.74953,0.65905 -0.64548,-0.21302 -1.17358,-0.49745 -1.17358,-0.63202 0,-0.38943 2.57198,-2.16414 5.45316,-3.76277 3.20973,-1.78092 7.81581,-3.35641 11.77228,-4.02666 3.57114,-0.60497 10.27526,-0.44909 13.85707,0.32217 l 2.34289,0.5045 0.5573,-0.68823 c 0.5476,-0.67627 0.54722,-0.69272 -0.0222,-0.94683 -0.562,-0.25076 -0.55392,-0.309 0.26671,-1.9246 1.31451,-2.58801 1.83154,-5.08682 1.65598,-8.00348 -0.19924,-3.31033 -1.06138,-5.55047 -2.8505,-7.40665 -1.44741,-1.50165 -2.57809,-2.02339 -1.67542,-0.77309 3.54819,4.91459 4.08321,10.46905 1.49954,15.56768 -0.85194,1.68116 -1.19715,1.89316 -2.64177,1.62214 l -1.02566,-0.19242 1.00331,-1.45854 c 1.55937,-2.26692 2.08492,-4.12749 2.0788,-7.35912 -0.004,-2.38568 -0.11804,-3.0423 -0.76672,-4.43494 -1.26612,-2.71827 -3.35969,-4.7028 -4.96125,-4.7028 -0.91955,0 -0.72791,0.42932 0.57718,1.29298 3.69226,2.44342 4.90263,7.99736 2.74455,12.59386 -1.31858,2.80847 -2.25942,3.79909 -3.6082,3.79909 -0.60706,0 -1.18856,-0.0848 -1.29223,-0.18851 -0.10375,-0.10374 0.46175,-0.89999 1.2565,-1.76957 2.43548,-2.6648 3.39476,-6.12439 2.52642,-9.11135 -1.03279,-3.55267 -4.60648,-5.53578 -6.71401,-3.72572 -0.80184,0.68865 -0.62979,0.83854 0.93581,0.81533 4.52111,-0.0671 5.72978,6.13613 2.09085,10.73067 -1.52172,1.92133 -3.32613,2.84465 -6.34278,3.24561 -7.55583,1.0043 -14.33244,3.7725 -19.5926,8.00349 l -1.70044,1.36775 -2.33221,-0.55236 c -1.28272,-0.30379 -4.28067,-0.73708 -6.66209,-0.96288 -3.98874,-0.37818 -4.442202,-0.48262 -5.755851,-1.32558 -0.784293,-0.50328 -1.704502,-1.21604 -2.04491,-1.58392 -1.885756,-2.03795 -2.651093,-5.60219 -1.724138,-8.02942 0.547976,-1.43486 2.386165,-3.27845 3.563442,-3.57395 0.49384,-0.12398 0.72475,-0.3583 0.660826,-0.6707 -0.148425,-0.72521 -2.069924,-0.55742 -3.321506,0.29005 -4.026352,2.7263 -4.228161,9.34368 -0.404672,13.26912 0.806257,0.82773 1.42622,1.54258 1.377686,1.58851 -0.04852,0.0459 -0.743896,0.12981 -1.545261,0.1865 l -1.45703,0.10295 -1.128813,-1.60738 c -3.640996,-5.18458 -2.779759,-11.85474 1.968297,-15.24428 0.747042,-0.53329 0.817224,-0.69059 0.486186,-1.08946 -0.34665,-0.4177 -0.475633,-0.4203 -1.240063,-0.0251 -1.112362,0.57523 -3.104359,3.09738 -4.062604,5.14382 -0.636763,1.35988 -0.760236,2.04885 -0.76599,4.2741 -0.0078,3.00522 0.468293,4.71103 2.045967,7.33101 l 0.998968,1.65896 -0.691976,0.17368 c -1.228385,0.30829 -1.75071,-0.003 -2.717073,-1.62037 -1.910082,-3.19644 -2.320537,-7.89599 -1.01425,-11.61262 0.650428,-1.8506 0.348509,-2.55979 -0.594171,-1.39563 -1.430433,1.76651 -1.958373,6.83183 -1.055476,10.12673 l 0.469712,1.71411 -1.229783,-1.01435 c -1.351643,-1.11489 -1.584056,-1.75893 -1.637055,-4.53641 -0.06704,-3.51388 1.113689,-6.92994 2.920899,-8.45061 1.044981,-0.87929 1.689089,-0.96701 2.514733,-0.34253 0.766616,0.57984 0.93621,0.55873 1.323406,-0.16475 0.246983,-0.4615 0.238417,-0.83694 -0.03408,-1.49485 -0.319865,-0.77223 -0.292559,-0.94996 0.225582,-1.4681 1.423989,-1.424 4.57546,-1.23305 5.744404,0.34803 0.511819,0.69226 0.869959,0.87307 1.729376,0.87307 1.349889,0 2.544197,0.89391 2.879963,2.1556 0.278349,1.04592 -0.03231,2.53745 -0.605831,2.90838 -0.293724,0.18998 -0.279081,0.304 0.06822,0.53205 0.727914,0.47784 1.193937,0.3457 2.063367,-0.58503 0.987159,-1.05675 1.293679,-1.09373 1.899249,-0.22918 0.99342,1.41832 0.48541,3.27352 -1.155599,4.22008 -0.50112,0.28906 -0.50263,0.33473 -0.0267,0.81061 0.617009,0.61699 1.977309,0.65048 3.088189,0.076 0.97372,-0.50353 1.63214,-1.89662 1.42026,-3.00497 -0.0919,-0.48089 0.0654,-1.13831 0.40624,-1.6972 0.30597,-0.50176 0.55679,-1.42529 0.5574,-2.05233 9.2e-4,-0.93203 -0.20771,-1.34884 -1.14329,-2.28442 -0.63174,-0.63176 -1.45702,-1.15962 -1.84228,-1.17837 -1.63476,-0.0797 -1.58709,-0.0244 -1.49336,-1.72615 0.11306,-2.05269 -0.55633,-3.83755 -1.872678,-4.99332 -1.012512,-0.889 -2.964214,-1.61473 -3.711423,-1.38008 -0.220015,0.0691 -0.762369,0.20495 -1.205228,0.3019 -0.44285,0.0969 -1.284306,0.59692 -1.869888,1.11107 -0.876725,0.76977 -1.150875,0.87363 -1.552924,0.58835 -2.778862,-1.97188 -4.713801,-1.95253 -6.733641,0.0674 -0.90598,0.90598 -1.300609,1.5768 -1.439852,2.44755 -0.191321,1.1965 -0.195797,1.20002 -1.765246,1.3961 -2.930287,0.36615 -4.845607,2.35072 -4.845607,5.02089 0,1.22041 0.172606,1.77167 0.845672,2.70081 l 0.845675,1.16742 -0.578137,1.12689 c -0.317977,0.61979 -0.586892,1.70609 -0.597598,2.41399 -0.01072,0.70792 -0.114384,1.2871 -0.230404,1.2871 -0.116025,0 -0.791401,-0.32103 -1.500835,-0.71341 -3.355414,-1.85585 -10.162901,-3.62232 -14.406931,-3.73846 -1.053786,-0.0288 -2.121937,-0.15712 -2.373671,-0.28505 -0.251738,-0.12796 -0.825441,-0.90825 -1.274897,-1.73407 -1.515057,-2.78364 -0.978763,-6.54558 1.174594,-8.23939 0.431692,-0.33958 1.02446,-0.61741 1.317272,-0.61741 0.649591,0 0.921635,-0.38575 0.692722,-0.98228 -0.286403,-0.74636 -0.892645,-0.77537 -2.137823,-0.1023 -3.549874,1.91898 -4.888119,6.8077 -2.857896,10.44016 0.413638,0.74006 0.716968,1.37989 0.674073,1.42185 -0.0429,0.0419 -0.55442,0.16525 -1.136721,0.27399 -1.050437,0.19618 -1.064158,0.18543 -1.753127,-1.37384 -0.859594,-1.94546 -0.944203,-5.55666 -0.177741,-7.58655 0.599006,-1.58642 0.374729,-1.9226 -0.558942,-0.83782 -1.407052,1.63473 -1.74739,5.54459 -0.737351,8.47085 0.307167,0.88994 0.534962,1.63716 0.506214,1.66047 -0.02874,0.0232 -0.469532,0.1318 -0.979517,0.24089 -0.891406,0.1908 -0.948368,0.14374 -1.473826,-1.21831 -0.396503,-1.02777 -0.545123,-2.18573 -0.541263,-4.21707 0.0044,-2.38934 0.11707,-3.03819 0.7668,-4.42148 1.39616,-2.9725 3.026117,-4.01386 4.890789,-3.12466 1.643315,0.78365 2.448482,-0.31634 1.364433,-1.86404 -0.460765,-0.65782 -0.45648,-0.7229 0.07369,-1.12065 0.759019,-0.56943 3.171301,-0.33412 4.19569,0.40926 0.433757,0.31479 1.090755,1.17389 1.459994,1.90912 0.607585,1.20983 0.635578,1.44633 0.294768,2.49019 -0.296866,0.90923 -0.579382,1.21308 -1.334572,1.43543 -1.15323,0.33949 -1.194946,0.58079 -0.211795,1.22498 1.034437,0.67778 2.456912,0.24203 3.233143,-0.99044 0.680152,-1.07992 1.206409,-1.21174 1.473821,-0.36919 0.257181,0.81028 0.871792,0.7384 1.599816,-0.18715 1.230542,-1.56437 0.463809,-4.1612 -1.482114,-5.01974 -0.903514,-0.39864 -1.149617,-0.66837 -1.150482,-1.26098 -0.0016,-1.05505 -0.987534,-2.55625 -2.03458,-3.0977 -1.267011,-0.65518 -2.439043,-0.56451 -3.691771,0.2856 l -1.093475,0.74205 -0.734663,-0.57789 c -2.633747,-2.07171 -6.067607,-0.89508 -7.17432,2.4583 -0.297135,0.90032 -0.479867,1.05696 -1.232942,1.05696 -1.286417,0 -2.607355,1.40719 -2.607355,2.77761 0,0.57988 -0.132641,1.05435 -0.294763,1.05435 -0.483302,0 -0.339643,0.98778 0.455728,3.13363 0.905655,2.44337 4.456477,9.68185 4.95056,10.09189 0.235437,0.1954 1.282263,0.15321 3.147465,-0.1269 10.244085,-1.53811 20.686756,1.70342 28.804559,8.9413 1.173631,1.04642 2.075632,1.99681 2.004446,2.112 -0.07119,0.11513 -0.663193,0.38557 -1.315572,0.60087 -1.18185,0.39005 -1.190737,0.38723 -2.459328,-0.78211 -3.184064,-2.93498 -9.217033,-6.2699 -13.461514,-7.4413 -3.472561,-0.95837 -7.96147,-1.32186 -11.52996,-0.93366 -1.671949,0.18189 -3.091257,0.38205 -3.154007,0.4448 -0.06275,0.0628 0.03899,0.35914 0.226093,0.65864 0.310901,0.49766 0.826641,0.54615 5.989419,0.56316 5.28787,0.0173 5.818929,0.0703 8.302122,0.82664 3.532607,1.07594 8.047202,3.3641 10.737707,5.44227 1.204233,0.93015 2.234695,1.82674 2.289922,1.9924 0.05522,0.16567 -0.385802,0.53309 -0.98005,0.81645 l -1.080453,0.51523 -0.914702,-0.86437 c -2.947781,-2.78556 -7.69135,-5.10961 -12.428933,-6.08938 -2.132861,-0.44109 -8.828257,-0.68906 -9.177427,-0.33989 -0.07539,0.0754 0.01099,0.4137 0.19196,0.75183 0.299096,0.55886 0.591237,0.61477 3.212164,0.61477 4.538899,0 8.212705,0.85102 12.129137,2.80967 1.713801,0.85708 5.600539,3.48928 5.600539,3.79282 0,0.0654 -0.46691,0.39436 -1.037586,0.73107 l -1.037581,0.61219 -1.247762,-0.95154 c -3.33167,-2.54069 -7.561152,-4.08329 -12.299628,-4.48596 l -2.505504,-0.21292 0.828513,0.87681 c 0.699571,0.74038 1.134243,0.90816 2.793037,1.0781 3.345387,0.34275 7.286356,1.8845 10.027352,3.92283 l 0.974001,0.72432 -1.104053,0.82319 -1.104053,0.8232 -1.42248,-0.97848 c -1.357733,-0.93396 -4.276692,-2.20351 -5.034377,-2.1896 -0.459829,0.008 0.448479,0.72593 3.945225,3.1165 l 2.828799,1.93394 2.431577,-1.65571 c 7.268176,-4.94907 15.496689,-7.53107 24.040222,-7.54349 9.423346,-0.0136 16.653216,2.16091 24.342026,7.32155 1.71542,1.15139 3.29022,2.29979 3.49957,2.55206 0.48882,0.58897 0.38973,0.60718 2.33058,-0.42834 z m -19.23875,-15.47248 c 0.44728,-0.68265 0.44728,-0.7912 0,-1.47384 -0.86899,-1.32625 -2.53262,-0.81309 -2.53262,0.78123 0,1.44953 1.72717,1.92187 2.53262,0.69261 z m 6.29505,-2.49733 c 0.7232,-0.38705 0.96175,-1.10987 0.59341,-1.79813 -0.39607,-0.74005 -1.64509,-0.73885 -2.04157,0.003 -0.41455,0.77462 -0.3851,1.07636 0.15807,1.61954 0.54453,0.54454 0.5908,0.55088 1.29009,0.17663 z m 8.26872,-5.01919 c 0.70948,-0.70948 0.73711,-1.13196 0.1306,-1.99777 -0.54336,-0.77575 -1.49387,-0.84659 -2.24451,-0.16729 -0.73288,0.66326 -0.67848,1.7392 0.11606,2.29573 0.86582,0.60644 1.2883,0.5788 1.99777,-0.13061 z m 29.47549,-3.38756 c 1.16529,-2.53426 2.40849,-5.81549 2.76496,-7.29768 0.18391,-0.76468 0.13766,-0.81061 -0.81642,-0.81061 -0.95443,0 -1.0229,-0.0681 -1.21566,-1.20907 -0.27626,-1.63511 -1.48789,-2.94168 -2.94803,-3.17902 -1.00247,-0.16295 -1.17571,-0.30914 -1.34452,-1.1345 -0.29056,-1.42078 -1.07592,-2.4324 -2.28383,-2.9418 -0.98904,-0.41711 -1.2061,-0.41293 -2.51534,0.0484 l -1.43291,0.50488 -0.77784,-0.74192 c -1.55283,-1.48111 -3.69666,-1.7716 -5.66476,-0.76753 -1.32074,0.67379 -2.33207,2.09514 -2.33373,3.27994 -9.2e-4,0.61562 -0.24106,0.90357 -1.10647,1.32644 -0.74536,0.36421 -1.29736,0.93749 -1.6949,1.76024 -0.49159,1.01746 -0.76784,1.24978 -1.66293,1.3985 -1.63921,0.27242 -2.90624,1.86682 -2.90481,3.65538 9.3e-4,1.5176 0.86961,3.30587 1.60538,3.30587 0.23987,0 0.57809,-0.2653 0.75162,-0.58953 0.45491,-0.85 1.05118,-0.72561 1.47958,0.30867 0.40543,0.97877 1.61712,1.75468 2.74013,1.75468 0.91814,0 2.26512,-1.06007 2.26512,-1.78262 0,-0.45856 -0.15224,-0.53031 -0.83532,-0.39369 -0.68369,0.13673 -0.978,-0.003 -1.62119,-0.76691 -1.6269,-1.93344 -0.64978,-4.77766 1.92557,-5.60496 1.04568,-0.3359 1.48454,-0.66906 1.8268,-1.3868 1.5689,-3.29001 8.12639,-2.32185 11.33746,1.67391 2.17249,2.70336 3.07526,5.45585 3.07207,9.36645 -9.2e-4,1.49959 0.052,2.72657 0.11829,2.72657 0.0663,0 0.63854,-1.12647 1.27163,-2.50326 z m -81.648922,1.61897 c 0.75377,-0.75378 0.74137,-0.96966 -0.112742,-1.96263 -0.628679,-0.73089 -0.782283,-0.78 -1.465695,-0.46861 -1.005886,0.45831 -1.315702,1.67609 -0.621547,2.4431 0.668625,0.73884 1.453518,0.73461 2.199988,-0.0119 z m 47.579342,-4.78102 c 0.56305,-1.61124 -1.63219,-2.74082 -2.61095,-1.34346 -0.58303,0.8324 -0.57847,1.24649 0.0202,1.84525 0.76207,0.76205 2.24969,0.47393 2.59066,-0.50179 z m -8.81773,-21.45899 c 5.68089,-0.35584 16.1571,-1.81731 16.78961,-2.34224 0.54145,-0.44937 0.59483,-1.51999 0.10044,-2.01439 -0.4321,-0.4321 -2.51862,-0.45659 -4.69059,-0.055 -6.96905,1.28828 -21.09315,1.83935 -30.327522,1.18323 -3.69645,-0.26262 -5.511165,-0.45008 -10.169398,-1.0504 -0.486364,-0.0628 -1.774899,-0.20208 -2.863406,-0.30976 -1.909908,-0.18894 -1.990833,-0.17004 -2.314757,0.54089 -0.420735,0.92341 0.03738,1.9152 0.986262,2.13501 2.231067,0.51686 11.941888,1.63084 17.603715,2.01938 3.18111,0.21831 10.539116,0.16561 14.885636,-0.10665 z M 65.516899,108.49698 c 0.413367,-4.17413 1.697959,-6.67501 4.531291,-8.821684 2.060663,-1.561255 3.902358,-2.121128 6.913846,-2.10181 5.862379,0.03758 9.734492,3.195864 11.697619,9.541074 0.106664,0.34477 0.26918,0.27985 0.737899,-0.29476 0.498831,-0.61153 0.573096,-1.00862 0.43646,-2.3337 -0.382255,-3.70712 -3.46484,-7.711997 -7.388679,-9.599284 -10.070182,-4.843563 -21.468659,2.041786 -21.781773,13.157474 l -0.06099,2.16531 1.915976,0.17292 c 2.928242,0.26428 2.775966,0.36002 2.998354,-1.88554 z m 75.455341,0.84474 c 0.38835,-0.85235 -0.10242,-4.22032 -0.94178,-6.46386 -0.82599,-2.20764 -2.59208,-4.851607 -4.14146,-6.20006 -1.6315,-1.419914 -4.92632,-3.018738 -7.0483,-3.420205 -1.73393,-0.32805 -4.71261,-0.176767 -6.62477,0.336472 -4.62113,1.24032 -8.5785,5.109409 -9.7138,9.497083 -0.38233,1.47763 -0.38842,1.86282 -0.0426,2.6906 0.57275,1.37076 0.97184,1.49522 1.21017,0.37739 0.68044,-3.1914 3.39031,-6.349184 6.82982,-7.958727 1.75756,-0.822469 2.25747,-0.922845 4.43799,-0.891225 2.06988,0.02999 2.75595,0.175409 4.35144,0.922021 3.97099,1.858251 6.29274,5.161791 6.54479,9.312331 0.0693,1.14208 0.1651,2.20917 0.2128,2.37129 0.0514,0.17467 1.01012,0.25501 2.35293,0.19719 2.02552,-0.0872 2.29876,-0.16903 2.57273,-0.7703 z"
       id="path1" />
  </g>
</svg>
